<svg width="28" height="28" viewBox="0 0 28 28" fill="none" xmlns="http://www.w3.org/2000/svg">
<path d="M14 15.75C14.4832 15.75 14.875 15.3582 14.875 14.875C14.875 14.3918 14.4832 14 14 14C13.5168 14 13.125 14.3918 13.125 14.875C13.125 15.3582 13.5168 15.75 14 15.75Z" fill="#297AAD"/>
<path d="M15.3125 4.45703V3.9375C15.3125 3.5894 15.1742 3.25556 14.9281 3.00942C14.6819 2.76328 14.3481 2.625 14 2.625C13.6519 2.625 13.3181 2.76328 13.0719 3.00942C12.8258 3.25556 12.6875 3.5894 12.6875 3.9375V4.45703C11.0301 4.6651 9.44668 5.26766 8.07024 6.21414L7.49219 5.63281C7.24562 5.38624 6.9112 5.24772 6.5625 5.24772C6.2138 5.24772 5.87938 5.38624 5.63282 5.63281C5.38625 5.87938 5.24773 6.2138 5.24773 6.5625C5.24773 6.9112 5.38625 7.24562 5.63282 7.49219L6.10313 7.9625C4.42324 9.87317 3.49772 12.3309 3.5 14.875C3.5 20.6648 8.21024 25.375 14 25.375C19.7898 25.375 24.5 20.6648 24.5 14.875C24.5 9.52984 20.4848 5.10453 15.3125 4.45703ZM14 17.5C13.3809 17.4998 12.7818 17.2808 12.3085 16.8817C11.8352 16.4826 11.5183 15.9291 11.4136 15.3189C11.3089 14.7087 11.4232 14.0812 11.7364 13.5471C12.0495 13.0131 12.5414 12.6069 13.125 12.4004V8.3125C13.125 8.08044 13.2172 7.85788 13.3813 7.69378C13.5454 7.52969 13.7679 7.4375 14 7.4375C14.2321 7.4375 14.4546 7.52969 14.6187 7.69378C14.7828 7.85788 14.875 8.08044 14.875 8.3125V12.4004C15.4586 12.6069 15.9505 13.0131 16.2636 13.5471C16.5768 14.0812 16.6911 14.7087 16.5864 15.3189C16.4818 15.9291 16.1648 16.4826 15.6915 16.8817C15.2182 17.2808 14.6191 17.4998 14 17.5Z" fill="#297AAD"/>
</svg>
