<svg width="28" height="28" viewBox="0 0 28 28" fill="none" xmlns="http://www.w3.org/2000/svg">
<path d="M14.7109 18.3537C14.4801 18.3708 14.2471 18.3794 14.0119 18.3794C13.7259 18.3794 13.4432 18.3662 13.1637 18.3416C11.7813 18.2191 10.4416 17.7992 9.23656 17.1107C8.03148 16.4222 6.98943 15.4814 6.18179 14.3527C6.16052 14.3224 6.13189 14.2979 6.09858 14.2817C6.06528 14.2654 6.02839 14.2579 5.99138 14.2598C5.95437 14.2618 5.91846 14.273 5.887 14.2926C5.85555 14.3122 5.82959 14.3395 5.81156 14.3719L1.87406 21.4484C1.72422 21.7219 1.7007 22.05 1.85875 22.3169C1.94102 22.4492 2.05563 22.5584 2.19178 22.6342C2.32793 22.7099 2.48113 22.7498 2.63695 22.75H6.90258C7.05117 22.7445 7.19853 22.7788 7.32946 22.8492C7.4604 22.9197 7.57016 23.0238 7.64742 23.1509L9.76164 26.6875C9.839 26.8187 9.94879 26.9279 10.0805 27.0045C10.2121 27.0811 10.3613 27.1226 10.5136 27.125C10.8384 27.1069 11.1748 26.8959 11.3098 26.6L14.9252 18.6621C14.9408 18.6276 14.9472 18.5897 14.9438 18.552C14.9403 18.5143 14.9272 18.4781 14.9056 18.447C14.884 18.416 14.8547 18.391 14.8205 18.3747C14.7864 18.3583 14.7486 18.3511 14.7109 18.3537ZM26.1209 21.4309L22.2091 14.3669C22.191 14.3349 22.1651 14.3079 22.1338 14.2885C22.1026 14.2691 22.0669 14.2579 22.0302 14.2559C21.9934 14.254 21.9568 14.2613 21.9236 14.2773C21.8904 14.2932 21.8618 14.3173 21.8405 14.3473C20.7647 15.8545 19.2781 17.0205 17.5579 17.7062C17.3467 17.7894 17.1758 17.9511 17.081 18.1573L15.0652 22.5925C15.0393 22.6491 15.0258 22.7107 15.0258 22.773C15.0258 22.8353 15.0393 22.8968 15.0652 22.9534L16.7206 26.5951C16.8546 26.8909 17.1904 27.1069 17.5147 27.125C17.6671 27.1212 17.816 27.0784 17.9472 27.0007C18.0784 26.9229 18.1874 26.8128 18.2639 26.6809L20.371 23.1492C20.5291 22.884 20.8156 22.7484 21.1246 22.75H25.4323C25.7971 22.75 26.0733 22.5597 26.198 22.2031C26.2418 22.0765 26.2576 21.9419 26.2443 21.8086C26.231 21.6752 26.1888 21.5464 26.1209 21.4309Z" fill="#297AAD"/>
<path d="M14.0142 11.375C15.4643 11.375 16.6398 10.1997 16.6398 8.75C16.6398 7.30025 15.4643 6.125 14.0142 6.125C12.5642 6.125 11.3887 7.30025 11.3887 8.75C11.3887 10.1997 12.5642 11.375 14.0142 11.375Z" fill="#297AAD"/>
<path d="M14.0142 0.875C9.67088 0.875 6.13916 4.40727 6.13916 8.75C6.13916 13.0927 9.67252 16.625 14.0142 16.625C18.3558 16.625 21.8892 13.0922 21.8892 8.75C21.8892 4.40781 18.3569 0.875 14.0142 0.875ZM14.0142 13.125C13.1489 13.125 12.303 12.8684 11.5835 12.3877C10.8641 11.9069 10.3033 11.2237 9.97219 10.4242C9.64105 9.62481 9.55441 8.74515 9.72322 7.89648C9.89204 7.04781 10.3087 6.26826 10.9206 5.65641C11.5324 5.04455 12.312 4.62787 13.1606 4.45906C14.0093 4.29025 14.889 4.37689 15.6884 4.70803C16.4878 5.03916 17.1711 5.59992 17.6518 6.31938C18.1326 7.03885 18.3892 7.88471 18.3892 8.75C18.3877 9.90988 17.9263 11.0218 17.1062 11.842C16.286 12.6622 15.174 13.1236 14.0142 13.125Z" fill="#297AAD"/>
</svg>
