<svg width="28" height="28" viewBox="0 0 28 28" fill="none" xmlns="http://www.w3.org/2000/svg">
<path d="M16.3182 13.5624C16.3613 13.5625 16.4034 13.5498 16.4394 13.526C16.4753 13.5021 16.5033 13.4682 16.52 13.4285C16.5367 13.3888 16.5413 13.345 16.5333 13.3027C16.5252 13.2603 16.5048 13.2213 16.4746 13.1906L12.1871 8.83088C12.1566 8.79995 12.1177 8.77877 12.0751 8.77007C12.0326 8.76136 11.9884 8.76551 11.9482 8.78199C11.9081 8.79847 11.8737 8.82654 11.8495 8.86261C11.8254 8.89868 11.8125 8.94113 11.8125 8.98456V12.9062C11.8125 13.0802 11.8816 13.2472 12.0047 13.3702C12.1278 13.4933 12.2947 13.5624 12.4688 13.5624H16.3182Z" fill="#297AAD"/>
<path d="M10.7734 14.6015C10.5488 14.3799 10.3703 14.116 10.2483 13.825C10.1263 13.534 10.0631 13.2217 10.0625 12.9062V7.87495H6.125C5.19759 7.87769 4.30894 8.24732 3.65315 8.9031C2.99737 9.55888 2.62774 10.4475 2.625 11.3749V23.6249C2.625 24.5532 2.99375 25.4434 3.65013 26.0998C4.3065 26.7562 5.19674 27.1249 6.125 27.1249H14C14.9283 27.1249 15.8185 26.7562 16.4749 26.0998C17.1313 25.4434 17.5 24.5532 17.5 23.6249V15.3124H12.4688C12.1532 15.312 11.8409 15.2489 11.5498 15.1269C11.2588 15.0049 10.9949 14.8263 10.7734 14.6015ZM20.3438 6.56245H24.1932C24.2363 6.56248 24.2784 6.54979 24.3144 6.52596C24.3503 6.50213 24.3783 6.46823 24.395 6.4285C24.4117 6.38878 24.4163 6.34501 24.4083 6.30268C24.4002 6.26035 24.3798 6.22135 24.3496 6.19057L20.0621 1.83088C20.0316 1.79995 19.9927 1.77877 19.9501 1.77007C19.9076 1.76136 19.8634 1.76551 19.8232 1.78199C19.7831 1.79847 19.7487 1.82654 19.7245 1.86261C19.7004 1.89868 19.6875 1.94113 19.6875 1.98456V5.9062C19.6875 6.08024 19.7566 6.24716 19.8797 6.37023C20.0028 6.49331 20.1697 6.56245 20.3438 6.56245Z" fill="#297AAD"/>
<path d="M20.3438 8.3125C19.7071 8.30764 19.0979 8.05256 18.6477 7.60235C18.1974 7.15214 17.9424 6.54292 17.9375 5.90625V0.875H12.0313C11.1613 0.876013 10.3273 1.22204 9.71218 1.83717C9.09704 2.45231 8.75101 3.28632 8.75 4.15625V6.125H11.0534C11.3474 6.12618 11.6383 6.18543 11.9094 6.29937C12.1804 6.4133 12.4263 6.57967 12.6328 6.78891L18.6025 12.8592C19.019 13.2818 19.2515 13.8519 19.2495 14.4452V21.875H22.1506C23.9285 21.875 25.3745 20.4028 25.3745 18.5938V8.3125H20.3438Z" fill="#297AAD"/>
</svg>
