<svg width="28" height="28" viewBox="0 0 28 28" fill="none" xmlns="http://www.w3.org/2000/svg">
<path d="M5.22266 5.68747H22.7227C22.9271 5.68738 23.1313 5.70035 23.3341 5.7263C23.2653 5.24383 23.0996 4.78028 22.8469 4.36359C22.5942 3.94691 22.2597 3.58571 21.8636 3.30179C21.4675 3.01787 21.018 2.8171 20.5422 2.71159C20.0664 2.60607 19.5742 2.59801 19.0952 2.68787L4.70312 5.14497H4.68672C3.78332 5.31773 2.97996 5.82886 2.4407 6.57396C3.25314 5.99609 4.22567 5.68619 5.22266 5.68747ZM22.7227 6.99997H5.22266C4.29471 7.00099 3.40506 7.37006 2.7489 8.02622C2.09274 8.68238 1.72367 9.57203 1.72266 10.5V21C1.72367 21.9279 2.09274 22.8176 2.7489 23.4737C3.40506 24.1299 4.29471 24.499 5.22266 24.5H22.7227C23.6506 24.499 24.5403 24.1299 25.1964 23.4737C25.8526 22.8176 26.2216 21.9279 26.2227 21V10.5C26.2216 9.57203 25.8526 8.68238 25.1964 8.02622C24.5403 7.37006 23.6506 7.00099 22.7227 6.99997ZM20.125 17.5C19.7789 17.5 19.4405 17.3973 19.1528 17.205C18.865 17.0128 18.6407 16.7394 18.5082 16.4197C18.3758 16.0999 18.3411 15.748 18.4086 15.4086C18.4762 15.0691 18.6428 14.7573 18.8876 14.5125C19.1323 14.2678 19.4441 14.1011 19.7836 14.0336C20.1231 13.9661 20.4749 14.0007 20.7947 14.1332C21.1145 14.2656 21.3878 14.4899 21.5801 14.7777C21.7724 15.0655 21.875 15.4039 21.875 15.75C21.875 16.2141 21.6906 16.6592 21.3624 16.9874C21.0342 17.3156 20.5891 17.5 20.125 17.5Z" fill="#297AAD"/>
<path d="M1.75 14.1914V8.75C1.75 7.56492 2.40625 5.57812 4.68398 5.14773C6.61719 4.78516 8.53125 4.78516 8.53125 4.78516C8.53125 4.78516 9.78906 5.66016 8.75 5.66016C7.71094 5.66016 7.73828 7 8.75 7C9.76172 7 8.75 8.28516 8.75 8.28516L4.67578 12.9062L1.75 14.1914Z" fill="#297AAD"/>
</svg>
