<svg width="24" height="24" viewBox="0 0 24 24" fill="none" xmlns="http://www.w3.org/2000/svg">
<path d="M15.2735 0H9.63329C8.38526 0 7.36523 1.00803 7.36523 2.25606V3.38408C7.36523 4.63212 8.37326 5.64014 9.62129 5.64014H15.2735C16.5215 5.64014 17.5295 4.63212 17.5295 3.38408V2.25606C17.5415 1.00803 16.5215 0 15.2735 0Z" fill="#297AAD"/>
<path d="M18.7405 3.38345C18.7405 5.2915 17.1804 6.85153 15.2724 6.85153H9.63219C7.72414 6.85153 6.1641 5.2915 6.1641 3.38345C6.1641 2.71143 5.44409 2.29142 4.84407 2.60343C3.15203 3.50345 2 5.2915 2 7.34355V18.6358C2 21.5879 4.41206 24 7.36413 24H17.5404C20.4925 24 22.9046 21.5879 22.9046 18.6358V7.34355C22.9046 5.2915 21.7525 3.50345 20.0605 2.60343C19.4605 2.29142 18.7405 2.71143 18.7405 3.38345ZM16.4604 12.8757L11.6603 17.6758C11.4803 17.8558 11.2523 17.9398 11.0243 17.9398C10.7963 17.9398 10.5683 17.8558 10.3883 17.6758L8.58816 15.8758C8.24016 15.5278 8.24016 14.9517 8.58816 14.6037C8.93617 14.2557 9.51219 14.2557 9.8602 14.6037L11.0243 15.7678L15.1884 11.6037C15.5364 11.2557 16.1124 11.2557 16.4604 11.6037C16.8084 11.9517 16.8084 12.5277 16.4604 12.8757Z" fill="#297AAD"/>
</svg>
