<svg width="24" height="25" viewBox="0 0 24 25" fill="none" xmlns="http://www.w3.org/2000/svg">
<path d="M17.0365 0H6.97548C2.6053 0 0 2.6053 0 6.97548V17.0245C0 21.4067 2.6053 24.012 6.97548 24.012H17.0245C21.3947 24.012 24 21.4067 24 17.0365V6.97548C24.012 2.6053 21.4067 0 17.0365 0ZM15.3557 17.5287C15.1756 17.7568 14.9114 17.8769 14.6473 17.8769C14.4552 17.8769 14.2631 17.8169 14.095 17.6848C12.8224 16.7003 11.1776 16.7003 9.90494 17.6848C9.50874 17.985 8.94446 17.9129 8.64431 17.5287C8.34416 17.1325 8.41619 16.5683 8.80039 16.2681C10.7093 14.7914 13.2786 14.7914 15.1876 16.2681C15.5958 16.5683 15.6678 17.1325 15.3557 17.5287ZM18.009 13.8189C17.8289 14.047 17.5648 14.1671 17.3006 14.1671C17.1085 14.1671 16.9164 14.107 16.7483 13.975C13.8669 11.7539 10.1571 11.7539 7.27563 13.975C6.87943 14.2871 6.31515 14.2151 6.00299 13.8189C5.69084 13.4227 5.77488 12.8584 6.15907 12.5583C9.70083 9.82089 14.2871 9.82089 17.8289 12.5583C18.2371 12.8584 18.3091 13.4227 18.009 13.8189ZM19.9179 10.109C19.7378 10.3372 19.4737 10.4572 19.2096 10.4572C19.0175 10.4572 18.8254 10.3972 18.6573 10.2651C14.6113 7.14356 9.38868 7.14356 5.35467 10.2651C4.95847 10.5653 4.39419 10.4932 4.09404 10.109C3.79389 9.71284 3.86593 9.14856 4.25012 8.84841C8.95646 5.2106 15.0435 5.2106 19.7618 8.84841C20.158 9.14856 20.2301 9.71284 19.9179 10.109Z" fill="#297AAD"/>
</svg>
